<svg width="41" height="41" viewBox="0 0 41 41" fill="none" xmlns="http://www.w3.org/2000/svg">
<mask id="mask0_3859_17311" style="mask-type:alpha" maskUnits="userSpaceOnUse" x="0" y="0" width="41" height="41">
<circle cx="20.5" cy="20.5" r="20.5" fill="#C4C4C4"/>
</mask>
<g mask="url(#mask0_3859_17311)">
<path d="M26.6116 41.8897C53.7061 27.9925 53.0755 -2.30867 53.0755 -2.30867C53.0755 -2.30867 49.8779 9.87187 30.7028 20.2457C3.42546 34.9983 4.18441 64.7464 4.18441 64.7464C4.18441 64.7464 6.90513 50.316 26.6116 41.8897Z" fill="#E86450"/>
<path d="M20.1569 10.118C48.2506 -1.62886 49.9795 -31.8873 49.9795 -31.8873C49.9795 -31.8873 45.8439 -19.9924 25.9197 -11.142C-2.42274 1.44339 -3.98073 31.1604 -3.98073 31.1604C-3.98073 31.1604 -0.145465 16.9854 20.1569 10.118Z" fill="#F2AE32"/>
<path d="M25.5519 28.3913C51.2361 12.034 47.7896 -18.0772 47.7896 -18.0772C47.7896 -18.0772 45.739 -5.65201 27.6119 6.46058C1.8252 23.6865 5.34807 53.2351 5.34807 53.2351C5.34807 53.2351 6.71465 38.6141 25.5519 28.3913Z" fill="#3574A2"/>
<path d="M14.2966 28.2448C4.27673 56.9997 -25.8209 60.5622 -25.8209 60.5622C-25.8209 60.5622 -14.1991 55.7122 -6.57439 35.2875C4.26736 6.23333 33.835 2.87433 33.835 2.87433C33.835 2.87433 19.919 7.56297 14.2966 28.2448Z" fill="#36A195"/>
</g>
</svg>
